<?xml version="1.0" encoding="UTF-8" standalone="no"?>
<svg
   xmlns:dc="http://purl.org/dc/elements/1.1/"
   xmlns:cc="http://creativecommons.org/ns#"
   xmlns:rdf="http://www.w3.org/1999/02/22-rdf-syntax-ns#"
   xmlns:svg="http://www.w3.org/2000/svg"
   xmlns="http://www.w3.org/2000/svg"
   xmlns:xlink="http://www.w3.org/1999/xlink"
   xmlns:sodipodi="http://sodipodi.sourceforge.net/DTD/sodipodi-0.dtd"
   xmlns:inkscape="http://www.inkscape.org/namespaces/inkscape"
   id="Layer_3"
   data-name="Layer 3"
   viewBox="0 0 321.32895 56"
   version="1.1"
   sodipodi:docname="logo_text-01-01-04.svg"
   width="321.32895"
   height="56"
   inkscape:version="0.92.5 (2060ec1f9f, 2020-04-08)">
  <metadata
     id="metadata60">
    <rdf:RDF>
      <cc:Work
         rdf:about="">
        <dc:format>image/svg+xml</dc:format>
        <dc:type
           rdf:resource="http://purl.org/dc/dcmitype/StillImage" />
      </cc:Work>
    </rdf:RDF>
  </metadata>
  <sodipodi:namedview
     pagecolor="#ffffff"
     bordercolor="#666666"
     borderopacity="1"
     objecttolerance="10"
     gridtolerance="10"
     guidetolerance="10"
     inkscape:pageopacity="0"
     inkscape:pageshadow="2"
     inkscape:window-width="1627"
     inkscape:window-height="1026"
     id="namedview58"
     showgrid="false"
     inkscape:zoom="0.99267935"
     inkscape:cx="377.89904"
     inkscape:cy="-210.20373"
     inkscape:window-x="53"
     inkscape:window-y="24"
     inkscape:window-maximized="1"
     inkscape:current-layer="Layer_3" />
  <defs
     id="defs21">
    <linearGradient
       id="linear-gradient"
       x1="46.939999"
       y1="30.73"
       x2="5.7199998"
       y2="45.099998"
       gradientUnits="userSpaceOnUse">
      <stop
         offset=".02"
         stop-color="#5da6db"
         id="stop2" />
      <stop
         offset=".99"
         stop-color="#4b99c9"
         id="stop4" />
    </linearGradient>
    <linearGradient
       id="linear-gradient-2"
       x1="91.360001"
       y1="34.25"
       x2="47.029999"
       y2="48.389999"
       xlink:href="#linear-gradient"
       gradientTransform="translate(0,-0.02)" />
    <linearGradient
       id="linear-gradient-3"
       x1="80.209999"
       y1="17.08"
       x2="40.619999"
       y2="38.509998"
       xlink:href="#linear-gradient"
       gradientTransform="translate(0,-0.02)" />
    <linearGradient
       id="linear-gradient-4"
       x1="30.559999"
       y1="-9.1800003"
       x2="30.559999"
       y2="30.24"
       gradientUnits="userSpaceOnUse">
      <stop
         offset=".01"
         stop-color="#faad37"
         id="stop9" />
      <stop
         offset=".99"
         stop-color="#f37d3c"
         id="stop11" />
    </linearGradient>
    <linearGradient
       id="linear-gradient-5"
       x1="12.91"
       y1="38.830002"
       x2="52.5"
       y2="25.27"
       xlink:href="#linear-gradient"
       gradientTransform="translate(0,-0.02)" />
    <linearGradient
       id="linear-gradient-6"
       x1="240.88"
       y1="13.9"
       x2="241.14"
       y2="47.689999"
       xlink:href="#linear-gradient-4"
       gradientTransform="translate(0,-0.02)" />
    <linearGradient
       id="linear-gradient-7"
       x1="250.17"
       y1="13.83"
       x2="250.42"
       y2="47.619999"
       xlink:href="#linear-gradient-4"
       gradientTransform="translate(0,-0.02)" />
    <linearGradient
       id="linear-gradient-8"
       x1="260.28"
       y1="13.75"
       x2="260.53"
       y2="47.540001"
       xlink:href="#linear-gradient-4"
       gradientTransform="translate(0,-0.02)" />
    <linearGradient
       id="linear-gradient-9"
       x1="270.04999"
       y1="13.68"
       x2="270.29999"
       y2="47.470001"
       xlink:href="#linear-gradient-4"
       gradientTransform="translate(0,-0.02)" />
    <style
       id="style19">.cls-2{fill:#1170ae}.cls-4{fill:#2373b6}.cls-15{letter-spacing:.27em}</style>
    <linearGradient
       inkscape:collect="always"
       xlink:href="#linear-gradient"
       id="linearGradient867"
       gradientUnits="userSpaceOnUse"
       x1="46.939999"
       y1="30.73"
       x2="5.7199998"
       y2="45.099998"
       gradientTransform="translate(0,-0.02)" />
    <linearGradient
       inkscape:collect="always"
       xlink:href="#linear-gradient-4"
       id="linearGradient869"
       gradientUnits="userSpaceOnUse"
       x1="30.559999"
       y1="-9.1800003"
       x2="30.559999"
       y2="30.24"
       gradientTransform="translate(0,-0.02)" />
  </defs>
  <path
     d="M 1.2,25.26 5.63,24.71 21.26,46.2 c 0,0 12.8,-6.44 33.48,3.18 0,0 -19.09,-3.35 -33.09,2.2 z"
     style="fill:url(#linearGradient867)"
     id="path23"
     inkscape:connector-curvature="0" />
  <path
     d="m 55.84,49.08 c 0,0 6.94,-14.98 27.97,-15.38 l 5.63,5.82 c 0,0 -12.13,-3.9 -33.6,9.56 z"
     style="fill:url(#linear-gradient-2)"
     id="path25"
     inkscape:connector-curvature="0" />
  <path
     d="m 39.72,26.12 c 0,0 4.91,-18.14 29.17,-13.9 l 17.6,20.65 c 0,0 -21.69,-1.71 -31.14,15.15 0,0 -13.75,-19.75 -15.63,-21.91 z"
     style="fill:url(#linear-gradient-3)"
     id="path27"
     inkscape:connector-curvature="0" />
  <path
     class="cls-4"
     d="M 3.12,29.51 C 2.87,29.55 0,30.25 0,30.25 v 1.66 L 18.83,56 55.35,50.49 c 0,0 -18.2,-3.95 -34.09,2.37 z m 53.14,20.45 c -0.41,0.28 31.95,-5.13 31.95,-5.13 v -1.45 l -3.9,-3.62 c 0,0 -13.36,0.36 -28.05,10.2 z"
     id="path29"
     inkscape:connector-curvature="0"
     style="fill:#2373b6" />
  <path
     d="m 30.55,29.51 c 0,0 10.54,-13.16 10.54,-18.98 C 41.09,4.71 36.37,0 30.55,0 24.73,0 20.01,4.72 20.01,10.54 c 0,5.82 10.54,18.98 10.54,18.98 z m 0,-24.76 c 3.24,0 5.87,2.63 5.87,5.87 0,3.24 -2.63,5.87 -5.87,5.87 -3.24,0 -5.87,-2.63 -5.87,-5.87 0,-3.24 2.63,-5.87 5.87,-5.87 z"
     style="fill:url(#linearGradient869)"
     id="path31"
     inkscape:connector-curvature="0" />
  <path
     d="m 38.64,26.6 c 0,0 -1.14,-0.91 -3.14,-2.17 -2.13,3.1 -4,5.46 -4.18,5.69 L 30.56,31.07 29.8,30.12 C 29.51,29.76 24.93,23.99 21.84,18.36 16.03,16.77 9.21,16.16 2.18,18.25 L 21.73,44.8 c 0,0 15.28,-5.51 32.93,3.95 l -16,-22.15 z"
     style="fill:url(#linear-gradient-5)"
     id="path33"
     inkscape:connector-curvature="0" />
  <path
     class="cls-2"
     d="m 100.87,45.22 v 4.46 l 0.5,0.02 -0.05,2.03 h -0.73 l -0.05,-1.29 h -3.17 l -0.05,1.29 h -0.73 l -0.05,-2.03 0.42,-0.02 c 0.2,-0.36 0.39,-0.74 0.5,-1.15 0.16,-0.56 0.22,-1.19 0.22,-1.95 v -1.36 z m -2.31,1.6 c 0,0.71 -0.08,1.36 -0.25,1.91 -0.1,0.34 -0.25,0.67 -0.39,0.93 h 1.99 V 46 h -1.36 v 0.82 z m 10.21,0.96 c 0,1.75 -1.06,2.75 -2.5,2.75 -1.44,0 -2.41,-1.13 -2.41,-2.66 0,-1.61 1.02,-2.74 2.49,-2.74 1.47,0 2.42,1.15 2.42,2.65 z m -3.9,0.07 c 0,1.07 0.54,1.91 1.45,1.91 0.91,0 1.44,-0.86 1.44,-1.95 0,-0.98 -0.49,-1.92 -1.44,-1.92 -0.95,0 -1.45,0.88 -1.45,1.95 z m 6.79,-2.55 c 0.3,-0.06 0.85,-0.12 1.4,-0.12 0.7,0 1.14,0.09 1.49,0.33 0.33,0.19 0.54,0.54 0.54,0.98 0,0.48 -0.3,0.91 -0.87,1.12 v 0.02 c 0.55,0.14 1.05,0.57 1.05,1.29 0,0.47 -0.2,0.83 -0.5,1.09 -0.37,0.32 -0.98,0.48 -1.95,0.48 -0.53,0 -0.92,-0.04 -1.17,-0.07 v -5.13 z m 0.95,2.06 h 0.49 c 0.67,0 1.03,-0.31 1.03,-0.75 0,-0.5 -0.37,-0.72 -0.98,-0.72 -0.28,0 -0.44,0.02 -0.54,0.04 z m 0,2.4 c 0.12,0.02 0.29,0.02 0.5,0.02 0.61,0 1.16,-0.23 1.16,-0.87 0,-0.64 -0.53,-0.86 -1.19,-0.86 h -0.47 z m 6.55,-4.54 v 5.22 h -0.95 v -5.22 z m 7.05,0 v 4.46 l 0.5,0.02 -0.05,2.03 h -0.73 l -0.05,-1.29 h -3.17 l -0.05,1.29 h -0.73 l -0.05,-2.03 0.42,-0.02 c 0.2,-0.36 0.39,-0.74 0.5,-1.15 0.16,-0.56 0.22,-1.19 0.22,-1.95 v -1.36 z m -2.31,1.6 c 0,0.71 -0.08,1.36 -0.25,1.91 -0.1,0.34 -0.25,0.67 -0.39,0.93 h 1.99 V 46 h -1.36 v 0.82 z m 6.59,-1.6 v 2.09 h 2.21 v -2.09 h 0.95 v 5.22 h -0.95 v -2.3 h -2.21 v 2.3 h -0.95 v -5.22 z m 7.22,0 v 1.85 c 0,0.83 -0.02,1.6 -0.06,2.29 h 0.02 c 0.27,-0.58 0.6,-1.21 0.95,-1.8 L 140,45.22 h 0.97 v 5.22 h -0.88 V 48.6 c 0,-0.83 0.02,-1.5 0.08,-2.17 h -0.02 c -0.25,0.6 -0.6,1.25 -0.92,1.81 l -1.33,2.21 h -1.06 v -5.22 h 0.88 z m 7.36,0 v 2.24 h 0.15 l 1.6,-2.24 h 1.15 l -1.89,2.36 c 0.76,0.14 1.08,0.64 1.32,1.29 0.19,0.55 0.35,1.08 0.59,1.57 h -1.02 c -0.19,-0.36 -0.3,-0.79 -0.43,-1.19 -0.21,-0.64 -0.49,-1.09 -1.24,-1.09 h -0.22 v 2.28 h -0.95 v -5.22 h 0.95 z m 10.25,0 v 2.09 h 2.21 v -2.09 h 0.95 v 5.22 h -0.95 v -2.3 h -2.21 v 2.3 h -0.95 v -5.22 z m 7.37,3.74 -0.45,1.48 h -0.98 l 1.67,-5.22 h 1.22 l 1.7,5.22 h -1.03 l -0.47,-1.48 h -1.65 z m 1.5,-0.72 -0.41,-1.29 c -0.1,-0.32 -0.19,-0.67 -0.26,-0.98 h -0.02 c -0.08,0.3 -0.16,0.67 -0.25,0.98 l -0.4,1.29 z m 4.46,-2.94 c 0.3,-0.06 0.85,-0.12 1.4,-0.12 0.7,0 1.14,0.09 1.49,0.33 0.33,0.19 0.54,0.54 0.54,0.98 0,0.48 -0.3,0.91 -0.87,1.12 v 0.02 c 0.55,0.14 1.05,0.57 1.05,1.29 0,0.47 -0.2,0.83 -0.5,1.09 -0.37,0.32 -0.98,0.48 -1.95,0.48 -0.53,0 -0.92,-0.04 -1.17,-0.07 v -5.13 z m 0.95,2.06 h 0.49 c 0.67,0 1.03,-0.31 1.03,-0.75 0,-0.5 -0.37,-0.72 -0.98,-0.72 -0.28,0 -0.44,0.02 -0.54,0.04 z m 0,2.4 c 0.12,0.02 0.29,0.02 0.5,0.02 0.61,0 1.16,-0.23 1.16,-0.87 0,-0.64 -0.53,-0.86 -1.19,-0.86 h -0.47 z m 6.36,-4.54 v 1.6 c 0,0.65 0.34,0.99 0.98,0.99 0.31,0 0.64,-0.1 0.88,-0.24 v -2.36 h 0.95 v 5.28 h -0.95 v -2.21 h -0.02 c -0.36,0.19 -0.75,0.29 -1.2,0.29 -0.83,0 -1.59,-0.41 -1.59,-1.6 v -1.76 h 0.95 z m 7.03,3.74 -0.45,1.48 h -0.98 l 1.67,-5.22 h 1.22 l 1.7,5.22 h -1.03 l -0.47,-1.48 H 183 Z m 1.5,-0.72 -0.41,-1.29 c -0.1,-0.32 -0.19,-0.67 -0.26,-0.98 h -0.02 c -0.08,0.3 -0.16,0.67 -0.25,0.98 l -0.4,1.29 z m 8.36,-3.02 v 5.22 H 191.9 V 46 h -1.43 v 1.4 c 0,1.25 -0.12,2.39 -0.88,2.87 -0.23,0.13 -0.57,0.25 -0.93,0.25 l -0.12,-0.77 c 0.24,-0.03 0.45,-0.15 0.57,-0.28 0.36,-0.36 0.43,-1.19 0.43,-2 v -2.25 z m 4.12,0 v 1.88 c 0.16,-0.03 0.44,-0.05 0.64,-0.05 1.09,0 2.05,0.51 2.05,1.67 0,0.5 -0.16,0.87 -0.41,1.13 -0.47,0.49 -1.28,0.64 -2.05,0.64 -0.53,0 -0.92,-0.04 -1.17,-0.07 v -5.21 h 0.95 z m 0,4.53 c 0.14,0.02 0.29,0.03 0.49,0.03 0.65,0 1.2,-0.32 1.2,-1.01 0,-0.69 -0.55,-0.97 -1.19,-0.97 -0.17,0 -0.34,0.02 -0.5,0.03 v 1.91 z m 6.56,-4.53 v 2.09 h 2.21 v -2.09 h 0.95 v 5.22 h -0.95 v -2.3 h -2.21 v 2.3 h -0.95 v -5.22 z m 7.22,0 v 1.85 c 0,0.83 -0.01,1.6 -0.06,2.29 h 0.02 c 0.27,-0.58 0.6,-1.21 0.95,-1.8 l 1.38,-2.34 h 0.97 v 5.22 h -0.88 V 48.6 c 0,-0.83 0.02,-1.5 0.08,-2.17 h -0.02 c -0.25,0.6 -0.6,1.25 -0.92,1.81 l -1.33,2.21 h -1.06 v -5.22 h 0.88 z m 9.21,5.22 -0.56,-1.04 c -0.23,-0.4 -0.37,-0.68 -0.53,-0.98 h -0.02 c -0.12,0.3 -0.26,0.58 -0.47,0.98 l -0.52,1.04 h -1.09 l 1.55,-2.64 -1.5,-2.58 h 1.1 l 0.57,1.08 c 0.17,0.33 0.29,0.58 0.43,0.88 h 0.02 c 0.14,-0.33 0.25,-0.56 0.41,-0.88 l 0.56,-1.08 H 221 l -1.53,2.55 1.59,2.67 h -1.11 z m 7.38,-4.9 c 0.36,-0.22 0.86,-0.41 1.51,-0.41 1.04,0 1.69,0.53 1.69,1.31 0,0.65 -0.45,1.12 -1.06,1.26 v 0.02 c 0.69,0.09 1.24,0.55 1.25,1.27 0,1.13 -1.07,1.55 -2.03,1.55 -0.51,0 -1.05,-0.11 -1.48,-0.36 l 0.22,-0.74 c 0.26,0.14 0.77,0.32 1.23,0.32 0.67,0 1.07,-0.33 1.07,-0.83 0,-0.67 -0.67,-0.83 -1.25,-0.83 h -0.41 v -0.71 h 0.41 c 0.6,0 1.07,-0.33 1.07,-0.8 0,-0.43 -0.33,-0.68 -0.86,-0.68 -0.4,0 -0.83,0.16 -1.12,0.32 l -0.23,-0.68 z m 7.35,3.42 -0.45,1.48 h -0.98 l 1.67,-5.22 h 1.22 l 1.7,5.22 h -1.03 l -0.47,-1.48 h -1.65 z m 1.5,-0.72 -0.41,-1.29 c -0.1,-0.32 -0.19,-0.67 -0.26,-0.98 h -0.01 c -0.08,0.3 -0.16,0.67 -0.25,0.98 l -0.4,1.29 h 1.34 z m 5.4,-3.02 v 2.24 h 0.15 l 1.6,-2.24 h 1.15 l -1.89,2.36 c 0.76,0.14 1.08,0.64 1.32,1.29 0.19,0.55 0.35,1.08 0.59,1.57 h -1.02 c -0.19,-0.36 -0.3,-0.79 -0.43,-1.19 -0.21,-0.64 -0.49,-1.09 -1.24,-1.09 h -0.22 v 2.28 h -0.95 v -5.22 h 0.95 z m 9.56,0 v 5.22 H 250.2 V 46 h -1.43 v 1.4 c 0,1.25 -0.12,2.39 -0.88,2.87 -0.23,0.13 -0.57,0.25 -0.93,0.25 l -0.12,-0.77 c 0.24,-0.03 0.45,-0.15 0.57,-0.28 0.36,-0.36 0.43,-1.19 0.43,-2 v -2.25 z m 4.23,3.74 -0.45,1.48 h -0.98 l 1.67,-5.22 h 1.22 l 1.7,5.22 h -1.03 l -0.47,-1.48 h -1.65 z m 1.5,-0.72 -0.41,-1.29 c -0.1,-0.32 -0.19,-0.67 -0.26,-0.98 h -0.02 c -0.08,0.3 -0.16,0.67 -0.25,0.98 l -0.4,1.29 z m 8.48,-3.02 v 4.46 l 0.5,0.02 -0.05,2.03 h -0.73 l -0.05,-1.29 h -3.17 l -0.05,1.29 h -0.73 l -0.05,-2.03 0.42,-0.02 c 0.2,-0.36 0.39,-0.74 0.5,-1.15 0.16,-0.56 0.22,-1.19 0.22,-1.95 v -1.36 z m -2.31,1.6 c 0,0.71 -0.08,1.36 -0.25,1.91 -0.1,0.34 -0.25,0.67 -0.39,0.93 h 1.99 V 46 h -1.36 v 0.82 z m 6.59,-1.6 v 5.22 h -0.95 v -5.22 z m 3.17,0.08 c 0.3,-0.06 0.85,-0.12 1.39,-0.12 0.7,0 1.14,0.09 1.49,0.33 0.33,0.19 0.54,0.54 0.54,0.98 0,0.48 -0.3,0.91 -0.87,1.12 v 0.02 c 0.55,0.14 1.05,0.57 1.05,1.29 0,0.47 -0.2,0.83 -0.5,1.09 -0.37,0.32 -0.98,0.48 -1.95,0.48 -0.53,0 -0.92,-0.04 -1.17,-0.07 v -5.13 z m 0.95,2.06 h 0.49 c 0.67,0 1.03,-0.31 1.03,-0.75 0,-0.5 -0.37,-0.72 -0.98,-0.72 -0.28,0 -0.44,0.02 -0.54,0.04 z m 0,2.4 c 0.12,0.02 0.29,0.02 0.5,0.02 0.61,0 1.16,-0.23 1.16,-0.87 0,-0.64 -0.53,-0.86 -1.19,-0.86 h -0.47 z"
     id="path35"
     inkscape:connector-curvature="0"
     style="fill:#1170ae" />
  <text
     style="font-weight:600;font-size:7.75px;font-family:MyriadPro-Semibold, 'Myriad Pro';fill:none"
     id="text39"
     x="96.43"
     y="50.439999">
    <tspan
       class="cls-15"
       x="103.58"
       y="50.439999"
       id="tspan37"
       style="letter-spacing:0.27000001em">ДОВІДНИК НАВЧАЛЬНИХ ЗАКЛАДIВ</tspan>
  </text>
  <path
     d="m 239.51,24.13 c 0,-0.4 0.14,-0.74 0.43,-1.02 0.28,-0.28 0.63,-0.43 1.03,-0.43 0.4,0 0.74,0.14 1.02,0.43 0.28,0.29 0.42,0.63 0.42,1.04 0,0.41 -0.14,0.74 -0.42,1.02 -0.28,0.28 -0.62,0.42 -1.03,0.42 -0.41,0 -0.75,-0.14 -1.03,-0.42 -0.28,-0.28 -0.43,-0.63 -0.43,-1.04 z m 0.47,15.17 V 27.68 h 2.01 V 39.3 Z"
     style="fill:url(#linear-gradient-6)"
     id="path41"
     inkscape:connector-curvature="0" />
  <path
     d="M 245.05,39.3 V 27.68 h 1.94 v 1.79 c 0.5,-0.74 1.1,-1.3 1.8,-1.66 0.7,-0.36 1.52,-0.55 2.44,-0.55 1.37,0 2.44,0.36 3.21,1.09 0.77,0.73 1.16,1.74 1.16,3.03 v 7.91 h -2.03 v -6.84 c 0,-1.18 -0.25,-2.05 -0.74,-2.62 -0.49,-0.57 -1.26,-0.86 -2.29,-0.86 -0.59,0 -1.13,0.11 -1.62,0.32 -0.49,0.22 -0.89,0.52 -1.21,0.92 -0.25,0.3 -0.42,0.65 -0.53,1.04 -0.11,0.39 -0.16,1.07 -0.16,2.03 v 6 h -1.97 z"
     style="fill:url(#linear-gradient-7)"
     id="path43"
     inkscape:connector-curvature="0" />
  <path
     d="m 258.94,39.3 v -9.98 h -2.23 v -1.64 h 2.23 v -3.36 c 0,-1.93 0.24,-3.24 0.73,-3.92 0.49,-0.68 1.36,-1.02 2.62,-1.02 0.31,0 0.61,0.02 0.89,0.06 0.28,0.04 0.56,0.11 0.82,0.2 v 2.06 c -0.25,-0.14 -0.51,-0.25 -0.77,-0.32 -0.26,-0.07 -0.52,-0.1 -0.79,-0.1 -0.58,0 -0.99,0.19 -1.21,0.56 -0.22,0.37 -0.33,1.29 -0.33,2.74 v 3.1 h 3.1 v 1.64 h -3.05 v 9.98 h -2.02 z"
     style="fill:url(#linear-gradient-8)"
     id="path45"
     inkscape:connector-curvature="0" />
  <path
     d="m 263.88,33.52 c 0,-0.85 0.16,-1.66 0.47,-2.42 0.31,-0.76 0.77,-1.43 1.37,-2.02 0.6,-0.59 1.28,-1.04 2.04,-1.35 0.76,-0.31 1.57,-0.46 2.44,-0.46 0.87,0 1.65,0.16 2.41,0.47 0.76,0.31 1.45,0.77 2.06,1.37 0.6,0.58 1.06,1.25 1.37,2.01 0.31,0.76 0.47,1.56 0.47,2.41 0,0.85 -0.16,1.64 -0.47,2.39 -0.31,0.75 -0.77,1.42 -1.37,2 -0.62,0.61 -1.31,1.07 -2.08,1.4 a 6.306,6.306 0 0 1 -4.82,0 C 267,39 266.32,38.55 265.72,37.96 c -0.6,-0.61 -1.06,-1.29 -1.37,-2.03 a 6.15,6.15 0 0 1 -0.47,-2.4 z m 2.11,0 c 0,1.23 0.41,2.27 1.23,3.12 0.82,0.85 1.82,1.28 2.98,1.28 1.16,0 2.15,-0.43 2.96,-1.28 0.81,-0.85 1.22,-1.89 1.22,-3.12 0,-1.23 -0.41,-2.27 -1.22,-3.12 -0.81,-0.85 -1.8,-1.28 -2.96,-1.28 -1.16,0 -2.17,0.43 -2.99,1.28 -0.82,0.85 -1.22,1.89 -1.22,3.12 z"
     style="fill:url(#linear-gradient-9)"
     id="path47"
     inkscape:connector-curvature="0" />
  <text
     style="font-weight:700;font-size:24.53000069px;font-family:Futuris-Bold, Futuris;letter-spacing:0;isolation:isolate;fill:none"
     id="text51"
     x="96.669998"
     y="38.830002">
    <tspan
       x="96.669998"
       y="38.830002"
       id="tspan49">Abiturientsinfo</tspan>
  </text>
  <g
     style="isolation:isolate"
     id="g55"
     transform="translate(0,-0.02)">
    <path
       class="cls-4"
       d="m 102.91,21.2 h 6.39 l 6.39,18.04 h -5.67 l -0.98,-3.12 h -5.88 l -1,3.12 h -5.67 z m 1.26,10.95 h 3.87 l -1.93,-6.37 -1.93,6.37 z m 17.3,7.09 h -4.59 V 20.3 h 4.77 v 7.5 c 0.07,-0.07 0.14,-0.14 0.22,-0.21 0.08,-0.07 0.15,-0.14 0.22,-0.21 0.48,-0.38 0.98,-0.65 1.48,-0.81 0.51,-0.16 1.09,-0.24 1.74,-0.24 h 0.26 c 1.79,0 3.2,0.63 4.24,1.88 1.04,1.25 1.56,2.85 1.56,4.79 0,1.77 -0.51,3.33 -1.52,4.67 -1.01,1.34 -2.44,2.01 -4.28,2.01 l -0.26,0.03 c -0.29,-0.02 -0.58,-0.05 -0.88,-0.09 a 5.35,5.35 0 0 1 -0.9,-0.22 c -0.36,-0.1 -0.71,-0.27 -1.06,-0.49 -0.34,-0.22 -0.68,-0.51 -1.01,-0.85 v 1.19 z m 4.24,-4.09 c 0.49,-0.52 0.73,-1.24 0.73,-2.15 0,-0.91 -0.24,-1.61 -0.72,-2.14 -0.48,-0.53 -1.1,-0.81 -1.86,-0.82 -0.74,0.03 -1.29,0.24 -1.66,0.63 -0.37,0.39 -0.62,0.81 -0.76,1.28 -0.05,0.19 -0.09,0.37 -0.12,0.55 -0.03,0.18 -0.04,0.35 -0.04,0.5 0,0.15 0.01,0.32 0.04,0.5 0.03,0.18 0.06,0.36 0.12,0.53 0.12,0.48 0.37,0.92 0.75,1.31 0.38,0.4 0.94,0.61 1.68,0.64 0.74,-0.03 1.35,-0.31 1.84,-0.84 z m 8.42,-13.63 c 0.46,-0.46 1.01,-0.68 1.65,-0.68 h 0.26 c 0.65,0 1.21,0.22 1.66,0.67 0.46,0.45 0.68,1.01 0.68,1.68 0,0.64 -0.22,1.19 -0.67,1.65 -0.45,0.46 -1,0.7 -1.68,0.7 h -0.26 c -0.6,0 -1.09,-0.17 -1.47,-0.52 -0.38,-0.34 -0.63,-0.72 -0.75,-1.13 -0.05,-0.12 -0.09,-0.24 -0.1,-0.36 a 2.214,2.214 0 0 1 0.67,-1.99 z m 4.18,5.27 v 12.45 h -4.77 V 26.79 Z m 3.16,3.25 h -1.62 v -3.25 h 1.62 v -3.43 h 4.77 v 3.43 h 2.53 v 3.25 h -2.53 v 9.2 h -4.77 z m 13.43,-3.25 v 6.8 c 0,0.14 0,0.3 0.01,0.48 0,0.18 0.04,0.37 0.09,0.55 0.09,0.33 0.25,0.63 0.5,0.92 0.25,0.28 0.67,0.43 1.25,0.45 0.58,-0.02 1,-0.17 1.25,-0.45 0.25,-0.28 0.42,-0.59 0.5,-0.92 0.05,-0.19 0.08,-0.37 0.09,-0.55 0,-0.18 0.01,-0.34 0.01,-0.48 v -6.8 h 4.77 v 6.7 c 0,0.34 -0.02,0.76 -0.06,1.24 -0.04,0.48 -0.16,0.97 -0.35,1.47 -0.33,0.88 -0.94,1.68 -1.83,2.4 -0.89,0.72 -2.31,1.08 -4.25,1.08 l -0.26,0.03 c -1.92,-0.02 -3.33,-0.38 -4.23,-1.1 -0.89,-0.71 -1.5,-1.51 -1.83,-2.38 -0.19,-0.52 -0.31,-1.02 -0.36,-1.51 -0.05,-0.49 -0.08,-0.9 -0.08,-1.22 v -6.7 h 4.77 z m 16.48,0.54 c 0.28,-0.21 0.57,-0.37 0.86,-0.49 0.27,-0.12 0.55,-0.21 0.84,-0.26 0.28,-0.05 0.55,-0.08 0.79,-0.08 h 0.26 c 0.07,0 0.15,0 0.25,0.01 0.09,0 0.19,0.01 0.3,0.01 0.03,0.02 0.07,0.03 0.1,0.03 h 0.1 c 0.09,0.02 0.17,0.03 0.24,0.04 0.08,0 0.13,0.01 0.17,0.01 v 3.97 h -0.26 c -0.05,-0.03 -0.1,-0.06 -0.15,-0.08 -0.05,-0.02 -0.11,-0.03 -0.18,-0.05 -0.1,-0.03 -0.21,-0.06 -0.31,-0.06 -0.1,0 -0.22,-0.01 -0.36,-0.01 -0.84,0.02 -1.49,0.21 -1.93,0.58 -0.45,0.37 -0.76,0.78 -0.95,1.22 -0.19,0.4 -0.3,0.77 -0.32,1.11 -0.03,0.34 -0.04,0.56 -0.04,0.64 v 5.31 h -4.77 V 26.78 h 4.59 v 1.29 c 0.24,-0.29 0.5,-0.54 0.79,-0.75 z m 6.07,-5.81 c 0.46,-0.46 1.01,-0.68 1.65,-0.68 h 0.26 c 0.65,0 1.21,0.22 1.66,0.67 0.46,0.45 0.68,1.01 0.68,1.68 0,0.64 -0.22,1.19 -0.67,1.65 -0.45,0.46 -1,0.7 -1.68,0.7 h -0.26 c -0.6,0 -1.09,-0.17 -1.47,-0.52 -0.38,-0.34 -0.63,-0.72 -0.75,-1.13 -0.05,-0.12 -0.09,-0.24 -0.1,-0.36 a 2.214,2.214 0 0 1 0.67,-1.99 z m 4.18,5.27 v 12.45 h -4.77 V 26.79 Z m 14.57,11.04 c -0.61,0.58 -1.24,1 -1.89,1.28 -0.67,0.26 -1.31,0.42 -1.93,0.48 -0.62,0.06 -1.1,0.09 -1.44,0.09 l -0.26,0.03 c -1.87,-0.02 -3.49,-0.58 -4.86,-1.7 -1.37,-1.12 -2.05,-2.78 -2.05,-5 0,-1.92 0.6,-3.52 1.79,-4.78 1.2,-1.26 2.88,-1.89 5.07,-1.89 h 0.26 c 2.03,0 3.53,0.48 4.51,1.44 0.98,0.96 1.64,2.02 1.98,3.17 0.14,0.48 0.23,0.95 0.28,1.42 0.05,0.46 0.08,0.89 0.08,1.29 v 0.36 h -9.49 v 0.13 c 0,0.1 0,0.21 0.01,0.31 0,0.1 0.02,0.21 0.04,0.31 0.1,0.55 0.35,1.06 0.75,1.52 0.4,0.46 0.98,0.71 1.75,0.72 0.58,-0.03 1.07,-0.18 1.47,-0.44 0.4,-0.26 0.65,-0.63 0.77,-1.11 h 4.59 c -0.34,1.01 -0.82,1.81 -1.43,2.38 z m -3.05,-6.28 c -0.04,-0.62 -0.25,-1.19 -0.63,-1.7 -0.38,-0.52 -0.97,-0.79 -1.77,-0.82 -0.7,0.03 -1.27,0.3 -1.7,0.79 -0.43,0.49 -0.66,1.07 -0.7,1.74 h 4.79 z m 13.13,-4.8 c 0.64,-0.28 1.36,-0.43 2.15,-0.43 h 0.26 c 1.37,0 2.37,0.35 2.99,1.06 0.62,0.7 1.02,1.48 1.21,2.32 0.1,0.41 0.17,0.82 0.19,1.21 0.03,0.4 0.04,0.75 0.04,1.06 v 7.27 h -4.77 v -6.86 c 0,-0.12 0,-0.27 -0.01,-0.46 0,-0.19 -0.03,-0.38 -0.06,-0.57 -0.07,-0.31 -0.21,-0.6 -0.41,-0.86 -0.21,-0.27 -0.53,-0.42 -0.98,-0.45 -0.65,0.03 -1.19,0.33 -1.61,0.88 -0.42,0.55 -0.63,1.28 -0.63,2.19 v 6.13 h -4.77 V 26.79 h 4.77 v 1.13 c 0.45,-0.5 0.99,-0.89 1.64,-1.17 z m 9.83,3.29 h -1.62 v -3.25 h 1.62 v -3.43 h 4.77 v 3.43 h 2.53 v 3.25 h -2.53 v 9.2 h -4.77 z m 9.21,5.31 h 0.26 c 0.1,0.07 0.22,0.14 0.35,0.21 0.13,0.07 0.27,0.15 0.42,0.23 0.34,0.17 0.74,0.33 1.17,0.48 0.44,0.15 0.9,0.23 1.38,0.25 0.31,-0.02 0.55,-0.07 0.72,-0.17 0.17,-0.09 0.29,-0.19 0.36,-0.3 0.05,-0.09 0.09,-0.16 0.1,-0.23 0.02,-0.07 0.03,-0.13 0.03,-0.18 0,-0.27 -0.09,-0.48 -0.28,-0.62 -0.19,-0.14 -0.4,-0.24 -0.62,-0.31 -0.09,-0.02 -0.18,-0.03 -0.27,-0.05 -0.09,-0.02 -0.18,-0.03 -0.27,-0.05 -1.24,-0.19 -2.25,-0.55 -3.03,-1.08 -0.78,-0.53 -1.17,-1.47 -1.17,-2.81 0,-0.17 0,-0.35 0.03,-0.54 0.02,-0.19 0.05,-0.38 0.1,-0.57 0.19,-0.83 0.66,-1.58 1.4,-2.26 0.74,-0.68 1.94,-1.02 3.57,-1.02 h 0.26 c 0.71,0 1.47,0.08 2.31,0.23 0.83,0.15 1.69,0.44 2.56,0.85 l -1.42,2.89 h -0.26 c -0.05,-0.03 -0.1,-0.06 -0.14,-0.09 l -0.12,-0.09 c -0.45,-0.27 -0.88,-0.48 -1.31,-0.61 -0.43,-0.13 -0.82,-0.2 -1.16,-0.22 -0.36,0.02 -0.63,0.09 -0.8,0.21 -0.17,0.12 -0.28,0.25 -0.33,0.39 -0.05,0.09 -0.08,0.17 -0.09,0.26 0,0.09 -0.01,0.15 -0.01,0.21 v 0.21 c 0.03,0.19 0.17,0.37 0.4,0.54 0.23,0.17 0.73,0.3 1.48,0.39 0.21,0.02 0.46,0.05 0.77,0.1 0.31,0.05 0.63,0.14 0.95,0.26 0.55,0.22 1.06,0.59 1.52,1.11 0.46,0.52 0.7,1.29 0.7,2.32 0,1.12 -0.4,2.14 -1.19,3.07 -0.79,0.93 -2.23,1.39 -4.33,1.39 l -0.26,0.03 c -1.05,-0.02 -1.98,-0.12 -2.78,-0.32 -0.8,-0.2 -1.56,-0.52 -2.27,-0.97 l 1.26,-3.12 z"
       id="path53"
       inkscape:connector-curvature="0"
       style="fill:#2373b6" />
  </g>
</svg>
